<?xml version="1.0" encoding="UTF-8"?>
<!DOCTYPE svg PUBLIC "-//W3C//DTD SVG 1.1//EN" "http://www.w3.org/Graphics/SVG/1.1/DTD/svg11.dtd">
<svg xmlns="http://www.w3.org/2000/svg" version="1.1" width="500px" height="500px" style="shape-rendering:geometricPrecision; text-rendering:geometricPrecision; image-rendering:optimizeQuality; fill-rule:evenodd; clip-rule:evenodd" xmlns:xlink="http://www.w3.org/1999/xlink">
<g><path style="opacity:1" fill="#484848" d="M 241.5,104.5 C 247.209,103.678 248.543,105.511 245.5,110C 240.728,110.81 239.395,108.977 241.5,104.5 Z"/></g>
<g><path style="opacity:1" fill="#2f2f2f" d="M 273.5,106.5 C 274.833,106.5 276.167,106.5 277.5,106.5C 278.5,111.509 276.833,113.176 272.5,111.5C 272.366,109.708 272.699,108.042 273.5,106.5 Z"/></g>
<g><path style="opacity:0.576" fill="#8c8c8c" d="M 273.5,106.5 C 272.699,108.042 272.366,109.708 272.5,111.5C 271.861,110.903 271.528,110.07 271.5,109C 271.684,107.624 272.351,106.791 273.5,106.5 Z"/></g>
<g><path style="opacity:1" fill="#1d1d1d" d="M 246.5,112.5 C 247.455,118.409 247.789,124.409 247.5,130.5C 245.833,130.5 244.167,130.5 242.5,130.5C 242.5,129.5 242.5,128.5 242.5,127.5C 242.5,122.5 242.5,117.5 242.5,112.5C 243.833,112.5 245.167,112.5 246.5,112.5 Z"/></g>
<g><path style="opacity:1" fill="#373737" d="M 255.5,111.5 C 258.187,111.336 260.854,111.503 263.5,112C 268.501,114.75 268.501,117.25 263.5,119.5C 260.902,115.548 258.402,115.548 256,119.5C 255.428,126.77 257.928,128.104 263.5,123.5C 268.146,125.917 267.812,128.417 262.5,131C 254.928,132.218 250.595,129.051 249.5,121.5C 250.003,117.144 252.003,113.811 255.5,111.5 Z"/></g>
<g><path style="opacity:1" fill="#363636" d="M 236.5,116.5 C 233.941,116.198 231.607,116.532 229.5,117.5C 231.732,119.195 234.399,120.362 237.5,121C 241.273,127.944 239.107,131.777 231,132.5C 224.285,132.356 223.118,130.022 227.5,125.5C 229.737,127.817 232.07,127.983 234.5,126C 231.583,124.895 228.583,123.895 225.5,123C 222.155,116.527 224.155,113.027 231.5,112.5C 233.228,112.59 234.894,112.923 236.5,113.5C 237.776,114.614 237.776,115.614 236.5,116.5 Z"/></g>
<g><path style="opacity:0.071" fill="#bcbcbc" d="M 272.5,113.5 C 273.833,113.5 275.167,113.5 276.5,113.5C 276.768,115.099 276.434,116.432 275.5,117.5C 275.5,116.5 275.5,115.5 275.5,114.5C 274.209,114.737 273.209,114.404 272.5,113.5 Z"/></g>
<g><path style="opacity:1" fill="#292929" d="M 272.5,113.5 C 273.209,114.404 274.209,114.737 275.5,114.5C 275.5,115.5 275.5,116.5 275.5,117.5C 275.471,121.64 274.804,125.64 273.5,129.5C 272.221,130.968 270.554,131.635 268.5,131.5C 268.062,131.565 267.728,131.399 267.5,131C 268.71,126.083 269.71,121.083 270.5,116C 270.684,114.624 271.351,113.791 272.5,113.5 Z"/></g>
<g><path style="opacity:0.953" fill="#797979" d="M 219.5,117.5 C 217.958,116.699 216.292,116.366 214.5,116.5C 217.013,113.874 218.68,114.207 219.5,117.5 Z"/></g>
<g><path style="opacity:0.486" fill="#a3a3a3" d="M 246.5,112.5 C 245.167,112.5 243.833,112.5 242.5,112.5C 242.5,117.5 242.5,122.5 242.5,127.5C 241.512,122.36 241.179,117.026 241.5,111.5C 243.415,111.216 245.081,111.549 246.5,112.5 Z"/></g>
<g><path style="opacity:1" fill="#2f2f2f" d="M 214.5,116.5 C 216.292,116.366 217.958,116.699 219.5,117.5C 221.088,122.684 222.755,127.851 224.5,133C 223.552,133.483 222.552,133.649 221.5,133.5C 219.965,132.646 218.632,132.646 217.5,133.5C 216.575,135.884 214.742,136.884 212,136.5C 209.966,136.646 208.299,135.98 207,134.5C 205.499,129.828 203.999,125.161 202.5,120.5C 204.173,118.914 206.173,118.247 208.5,118.5C 208.81,123.441 210.477,127.774 213.5,131.5C 215.291,131.038 216.291,129.871 216.5,128C 215.888,124.385 214.888,120.885 213.5,117.5C 213.624,116.893 213.957,116.56 214.5,116.5 Z"/></g>
<g><path style="opacity:0.933" fill="#989898" d="M 229.5,117.5 C 231.607,116.532 233.941,116.198 236.5,116.5C 236.217,117.289 235.717,117.956 235,118.5C 233.301,117.594 231.467,117.261 229.5,117.5 Z"/></g>
<g><path style="opacity:1" fill="#2a2a2a" d="M 195.5,129.5 C 193.804,125.636 193.471,125.636 194.5,129.5C 194.949,133.527 195.616,137.527 196.5,141.5C 196.457,142.416 196.124,143.083 195.5,143.5C 193.435,143.483 191.435,143.15 189.5,142.5C 187.203,140.706 185.037,138.706 183,136.5C 183.764,140.208 185.264,143.708 187.5,147C 186.107,149.356 184.274,149.856 182,148.5C 178.702,141.709 175.202,135.042 171.5,128.5C 172.577,127.295 173.91,126.628 175.5,126.5C 177.216,126.629 178.883,126.962 180.5,127.5C 183.833,130.167 186.833,133.167 189.5,136.5C 189.783,137.289 190.283,137.956 191,138.5C 191.765,136.934 191.598,135.601 190.5,134.5C 189.841,131.545 189.508,128.545 189.5,125.5C 189.298,123.05 189.631,120.717 190.5,118.5C 191.751,116.78 193.251,116.447 195,117.5C 198.755,124.009 202.255,130.676 205.5,137.5C 204.306,139.431 202.639,140.264 200.5,140C 198.421,136.676 196.754,133.176 195.5,129.5 Z"/></g>
<g><path style="opacity:1" fill="#2f2f2f" d="M 292.5,133.5 C 292.5,134.167 292.5,134.833 292.5,135.5C 292.5,135.833 292.5,136.167 292.5,136.5C 291.167,136.5 289.833,136.5 288.5,136.5C 287.265,136.279 286.265,135.612 285.5,134.5C 277.663,135.824 274.996,132.658 277.5,125C 281.099,123.986 284.765,123.153 288.5,122.5C 287.672,121.585 286.672,120.919 285.5,120.5C 281.044,122.527 279.377,121.36 280.5,117C 293.45,115.278 297.117,120.278 291.5,132C 291.57,132.765 291.903,133.265 292.5,133.5 Z M 282.5,127.5 C 288.576,126.904 289.076,128.238 284,131.5C 281.5,130.842 281,129.509 282.5,127.5 Z"/></g>
<g><path style="opacity:0.631" fill="#888888" d="M 190.5,118.5 C 189.631,120.717 189.298,123.05 189.5,125.5C 188.848,124.551 188.514,123.385 188.5,122C 188.608,120.319 189.275,119.152 190.5,118.5 Z"/></g>
<g><path style="opacity:1" fill="#343434" d="M 304.5,122.5 C 304.586,123.496 304.252,124.329 303.5,125C 305.81,125.497 308.143,125.663 310.5,125.5C 312.99,126.108 314.324,127.775 314.5,130.5C 312.973,135.887 310.64,140.887 307.5,145.5C 305.503,145.014 304.169,143.847 303.5,142C 305.167,138.333 306.833,134.667 308.5,131C 307.313,128.41 305.48,127.91 303,129.5C 301.254,133.327 299.254,136.993 297,140.5C 294.262,138.711 291.428,137.378 288.5,136.5C 289.833,136.5 291.167,136.5 292.5,136.5C 292.833,136.5 293.167,136.5 293.5,136.5C 294.338,136.158 294.672,135.492 294.5,134.5C 296.398,129.704 298.565,125.038 301,120.5C 302.113,121.305 303.279,121.972 304.5,122.5 Z"/></g>
<g><path style="opacity:0.765" fill="#878787" d="M 304.5,122.5 C 306.361,123.842 308.361,124.842 310.5,125.5C 308.143,125.663 305.81,125.497 303.5,125C 304.252,124.329 304.586,123.496 304.5,122.5 Z"/></g>
<g><path style="opacity:0.827" fill="#919191" d="M 180.5,127.5 C 178.883,126.962 177.216,126.629 175.5,126.5C 177.457,123.941 179.123,124.274 180.5,127.5 Z"/></g>
<g><path style="opacity:0.192" fill="#c7c7c7" d="M 195.5,129.5 C 195.167,129.5 194.833,129.5 194.5,129.5C 193.471,125.636 193.804,125.636 195.5,129.5 Z"/></g>
<g><path style="opacity:0.62" fill="#8c8c8c" d="M 273.5,129.5 C 273.5,130.5 273.5,131.5 273.5,132.5C 271.585,132.784 269.919,132.451 268.5,131.5C 270.554,131.635 272.221,130.968 273.5,129.5 Z"/></g>
<g><path style="opacity:0.38" fill="#bababa" d="M 217.5,133.5 C 218.632,132.646 219.965,132.646 221.5,133.5C 220.295,134.686 218.961,134.686 217.5,133.5 Z"/></g>
<g><path style="opacity:0.055" fill="#d3d3d3" d="M 292.5,133.5 C 293.167,133.833 293.833,134.167 294.5,134.5C 294.672,135.492 294.338,136.158 293.5,136.5C 293.5,135.833 293.167,135.5 292.5,135.5C 292.5,134.833 292.5,134.167 292.5,133.5 Z"/></g>
<g><path style="opacity:0.157" fill="#a6a6a6" d="M 190.5,134.5 C 191.598,135.601 191.765,136.934 191,138.5C 190.283,137.956 189.783,137.289 189.5,136.5C 190.338,136.158 190.672,135.492 190.5,134.5 Z"/></g>
<g><path style="opacity:0.999" fill="#424242" d="M 322.5,138.5 C 326.242,139.881 329.576,142.048 332.5,145C 331.924,147.268 330.59,148.268 328.5,148C 325.833,146 323.167,144 320.5,142C 321.823,141.184 322.489,140.017 322.5,138.5 Z"/></g>
<g><path style="opacity:0.906" fill="#7b7b7b" d="M 189.5,142.5 C 191.435,143.15 193.435,143.483 195.5,143.5C 193.095,146.315 191.095,145.982 189.5,142.5 Z"/></g>
<g><path style="opacity:0.82" fill="#919191" d="M 168.5,149.5 C 168.5,147.5 167.5,146.5 165.5,146.5C 167.212,144.236 168.545,144.736 169.5,148C 169.43,148.765 169.097,149.265 168.5,149.5 Z"/></g>
<g><path style="opacity:1" fill="#3a3a3a" d="M 165.5,146.5 C 167.5,146.5 168.5,147.5 168.5,149.5C 166.797,152.192 164.464,154.192 161.5,155.5C 160.618,154.24 159.618,153.074 158.5,152C 160.441,149.546 162.775,147.713 165.5,146.5 Z"/></g>
<g><path style="opacity:1" fill="#2b2b2b" d="M 350.5,146.5 C 351.08,148.749 352.413,150.415 354.5,151.5C 358.078,153.902 359.245,157.235 358,161.5C 355.601,166.128 352.101,167.461 347.5,165.5C 347.027,164.094 346.027,163.427 344.5,163.5C 343.206,162.71 342.039,161.71 341,160.5C 339,162.5 337,164.5 335,166.5C 330.42,162.918 330.92,159.918 336.5,157.5C 340.771,154.899 344.437,151.566 347.5,147.5C 348.221,145.618 349.221,145.285 350.5,146.5 Z M 348.5,153.5 C 352.817,154.554 353.817,156.721 351.5,160C 345.17,160.175 344.17,158.008 348.5,153.5 Z"/></g>
<g><path style="opacity:0.745" fill="#9a9a9a" d="M 350.5,146.5 C 352.587,147.585 353.92,149.251 354.5,151.5C 352.413,150.415 351.08,148.749 350.5,146.5 Z"/></g>
<g><path style="opacity:0.914" fill="#626262" d="M 347.5,147.5 C 344.437,151.566 340.771,154.899 336.5,157.5C 339.563,153.434 343.229,150.101 347.5,147.5 Z"/></g>
<g><path style="opacity:1" fill="#353535" d="M 143.5,161.5 C 144.496,161.414 145.329,161.748 146,162.5C 146.49,161.207 146.657,159.873 146.5,158.5C 146.415,157.005 147.081,156.005 148.5,155.5C 152.434,157.118 152.934,159.118 150,161.5C 149.333,162.5 149.333,163.5 150,164.5C 152.371,167.206 155.037,169.539 158,171.5C 158.779,173.906 157.946,175.573 155.5,176.5C 150.855,173.023 146.355,169.356 142,165.5C 141.227,163.648 141.727,162.314 143.5,161.5 Z"/></g>
<g><path style="opacity:0.396" fill="#c3c3c3" d="M 146.5,158.5 C 146.657,159.873 146.49,161.207 146,162.5C 145.329,161.748 144.496,161.414 143.5,161.5C 144.5,160.5 145.5,159.5 146.5,158.5 Z"/></g>
<g><path style="opacity:0.451" fill="#9a9a9a" d="M 344.5,163.5 C 346.027,163.427 347.027,164.094 347.5,165.5C 345.973,165.573 344.973,164.906 344.5,163.5 Z"/></g>
<g><path style="opacity:1" fill="#313131" d="M 360.5,167.5 C 361.363,168.94 361.363,170.274 360.5,171.5C 361.325,172.386 362.325,172.719 363.5,172.5C 367.605,175.004 367.272,177.004 362.5,178.5C 361.472,176.639 359.972,175.305 358,174.5C 354.364,176.637 350.864,178.971 347.5,181.5C 345.861,180.084 345.027,178.417 345,176.5C 349.696,172.972 354.529,169.638 359.5,166.5C 360.107,166.624 360.44,166.957 360.5,167.5 Z"/></g>
<g><path style="opacity:0.392" fill="#acacac" d="M 360.5,167.5 C 362.047,168.768 363.047,170.435 363.5,172.5C 362.325,172.719 361.325,172.386 360.5,171.5C 361.363,170.274 361.363,168.94 360.5,167.5 Z"/></g>
<g><path style="opacity:0.761" fill="#767676" d="M 143.5,171.5 C 140.763,171.401 138.096,171.735 135.5,172.5C 136.492,170.974 137.992,170.307 140,170.5C 141.385,170.514 142.551,170.848 143.5,171.5 Z"/></g>
<g><path style="opacity:1" fill="#2f2f2f" d="M 143.5,171.5 C 145.196,171.685 146.529,172.519 147.5,174C 145.892,177.272 143.892,180.272 141.5,183C 142.275,184.23 143.275,184.563 144.5,184C 146.893,181.604 148.226,179.104 148.5,176.5C 149.609,176.557 150.609,176.89 151.5,177.5C 152.327,186.171 148.327,190.004 139.5,189C 134.859,187.523 132.192,184.357 131.5,179.5C 132.1,176.651 133.433,174.318 135.5,172.5C 138.096,171.735 140.763,171.401 143.5,171.5 Z M 138.5,175.5 C 139.552,175.351 140.552,175.517 141.5,176C 140.333,177.833 139.167,179.667 138,181.5C 135.947,179.287 136.113,177.287 138.5,175.5 Z"/></g>
<g><path style="opacity:0.298" fill="#c3c3c3" d="M 148.5,176.5 C 149.947,175.115 150.947,175.448 151.5,177.5C 150.609,176.89 149.609,176.557 148.5,176.5 Z"/></g>
<g><path style="opacity:1" fill="#2e2e2e" d="M 361.5,180.5 C 370.478,180.31 374.311,184.643 373,193.5C 369.723,199.109 364.89,200.942 358.5,199C 351.185,191.414 352.185,185.247 361.5,180.5 Z M 364.5,185.5 C 369.8,188.187 369.8,191.02 364.5,194C 361.186,195.165 359.186,193.998 358.5,190.5C 360.162,188.348 362.162,186.682 364.5,185.5 Z"/></g>
<g><path style="opacity:1" fill="#313131" d="M 136.5,193.5 C 135.263,194.965 134.263,196.632 133.5,198.5C 132.596,199.209 132.263,200.209 132.5,201.5C 134.099,201.768 135.432,201.434 136.5,200.5C 136.833,199.833 137.167,199.167 137.5,198.5C 138.285,196.626 138.952,194.626 139.5,192.5C 140.189,191.226 141.023,191.226 142,192.5C 143.022,204.82 137.855,208.653 126.5,204C 121.143,198.408 121.476,193.075 127.5,188C 130.594,187.348 133.594,187.682 136.5,189C 137.413,190.414 137.413,191.914 136.5,193.5 Z M 129.5,192.5 C 130.376,192.369 131.043,192.702 131.5,193.5C 130.667,195.167 129.833,196.833 129,198.5C 127.09,196.373 127.257,194.373 129.5,192.5 Z M 136.5,193.5 C 137.301,195.042 137.634,196.708 137.5,198.5C 137.167,199.167 136.833,199.833 136.5,200.5C 134.821,200.715 133.821,200.048 133.5,198.5C 134.263,196.632 135.263,194.965 136.5,193.5 Z"/></g>
<g><path style="opacity:0.949" fill="#7c7c7c" d="M 139.5,192.5 C 138.952,194.626 138.285,196.626 137.5,198.5C 137.634,196.708 137.301,195.042 136.5,193.5C 137.391,192.89 138.391,192.557 139.5,192.5 Z"/></g>
<g><path style="opacity:0.008" fill="#cdcdcd" d="M 133.5,198.5 C 133.821,200.048 134.821,200.715 136.5,200.5C 135.432,201.434 134.099,201.768 132.5,201.5C 132.263,200.209 132.596,199.209 133.5,198.5 Z"/></g>
<g><path style="opacity:1" fill="#313131" d="M 386.5,208.5 C 387.609,208.557 388.609,208.89 389.5,209.5C 390.684,210.688 390.684,211.855 389.5,213C 382,215.5 374.5,218 367,220.5C 366.228,220.355 365.561,220.022 365,219.5C 364.691,218.234 364.191,217.067 363.5,216C 365.901,215.195 365.734,214.362 363,213.5C 359.928,206.477 362.095,201.977 369.5,200C 377.552,198.15 381.219,201.15 380.5,209C 382.488,209.18 384.488,209.014 386.5,208.5 Z M 369.5,205.5 C 371.527,205.338 373.527,205.505 375.5,206C 376.925,210.605 375.092,213.105 370,213.5C 365.597,211.048 365.431,208.381 369.5,205.5 Z"/></g>
<g><path style="opacity:1" fill="#2a2a2a" d="M 134.5,209.5 C 135.551,210.222 136.218,211.222 136.5,212.5C 135.833,213.167 135.167,213.833 134.5,214.5C 130.193,213.673 125.86,213.007 121.5,212.5C 121.34,214.199 121.506,215.866 122,217.5C 125.689,219.049 129.523,220.215 133.5,221C 134.684,222.145 134.684,223.312 133.5,224.5C 132.292,225.234 130.959,225.567 129.5,225.5C 127.485,224.076 125.152,223.41 122.5,223.5C 120.435,223.483 118.435,223.15 116.5,222.5C 115.89,221.609 115.557,220.609 115.5,219.5C 116.309,218.531 117.309,217.698 118.5,217C 118.272,216.601 117.938,216.435 117.5,216.5C 115.437,208.727 118.437,205.56 126.5,207C 129.202,207.84 131.868,208.673 134.5,209.5 Z"/></g>
<g><path style="opacity:0.365" fill="#c2c2c2" d="M 386.5,208.5 C 387.947,207.115 388.947,207.448 389.5,209.5C 388.609,208.89 387.609,208.557 386.5,208.5 Z"/></g>
<g><path style="opacity:0.22" fill="#cccccc" d="M 134.5,209.5 C 135.5,209.5 136.5,209.5 137.5,209.5C 137.737,210.791 137.404,211.791 136.5,212.5C 136.218,211.222 135.551,210.222 134.5,209.5 Z"/></g>
<g><path style="opacity:0.078" fill="#bebebe" d="M 136.5,212.5 C 136.719,213.675 136.386,214.675 135.5,215.5C 134.893,215.376 134.56,215.043 134.5,214.5C 135.167,213.833 135.833,213.167 136.5,212.5 Z"/></g>
<g><path style="opacity:0.737" fill="#909090" d="M 117.5,216.5 C 117.938,216.435 118.272,216.601 118.5,217C 117.309,217.698 116.309,218.531 115.5,219.5C 115.285,217.821 115.952,216.821 117.5,216.5 Z"/></g>
<g><path style="opacity:0.247" fill="#d4d4d4" d="M 115.5,219.5 C 115.557,220.609 115.89,221.609 116.5,222.5C 114.448,221.947 114.115,220.947 115.5,219.5 Z"/></g>
<g><path style="opacity:1" fill="#323232" d="M 368.5,234.5 C 370.933,234.214 370.933,233.548 368.5,232.5C 367.883,232.389 367.383,232.056 367,231.5C 365.542,227.219 366.708,224.053 370.5,222C 374.888,221.38 379.222,220.547 383.5,219.5C 385.086,221.173 385.753,223.173 385.5,225.5C 380.798,225.95 376.132,226.617 371.5,227.5C 371.286,229.144 371.62,230.644 372.5,232C 377.174,232.333 381.84,232.167 386.5,231.5C 386.421,232.93 386.754,234.264 387.5,235.5C 381.836,237.418 376.002,238.752 370,239.5C 367.712,238.158 367.212,236.491 368.5,234.5 Z"/></g>
<g><path style="opacity:0.749" fill="#707070" d="M 122.5,223.5 C 125.152,223.41 127.485,224.076 129.5,225.5C 126.848,225.59 124.515,224.924 122.5,223.5 Z"/></g>
<g><path style="opacity:0.184" fill="#afafaf" d="M 133.5,224.5 C 133.38,225.586 132.713,226.253 131.5,226.5C 130.584,226.457 129.917,226.124 129.5,225.5C 130.959,225.567 132.292,225.234 133.5,224.5 Z"/></g>
<g><path style="opacity:0.999" fill="#3d3d3d" d="M 107.5,225.5 C 113.076,226.555 113.743,228.889 109.5,232.5C 106.452,230.875 105.785,228.542 107.5,225.5 Z"/></g>
<g><path style="opacity:1" fill="#2b2b2b" d="M 115.5,227.5 C 121.217,227.793 126.884,228.46 132.5,229.5C 132.5,231.167 132.5,232.833 132.5,234.5C 126.783,234.207 121.116,233.54 115.5,232.5C 114.28,230.716 114.28,229.05 115.5,227.5 Z"/></g>
<g><path style="opacity:0.533" fill="#8b8b8b" d="M 115.5,227.5 C 114.28,229.05 114.28,230.716 115.5,232.5C 114.307,232.03 113.64,231.03 113.5,229.5C 113.833,228.5 114.167,227.5 114.5,226.5C 115.107,226.624 115.44,226.957 115.5,227.5 Z"/></g>
<g><path style="opacity:0.039" fill="#d7d7d7" d="M 368.5,232.5 C 370.933,233.548 370.933,234.214 368.5,234.5C 368.5,233.833 368.5,233.167 368.5,232.5 Z"/></g>
<g><path style="opacity:1" fill="#323232" d="M 113.5,236.5 C 114.053,238.552 115.053,238.885 116.5,237.5C 118.735,237.205 120.735,237.539 122.5,238.5C 122.427,240.027 123.094,241.027 124.5,241.5C 125.185,243.414 125.685,245.414 126,247.5C 126.19,243.812 127.024,240.312 128.5,237C 135.413,234.468 139.08,236.968 139.5,244.5C 140.046,250.605 137.379,253.938 131.5,254.5C 130.878,253.373 130.045,252.373 129,251.5C 127.384,252.801 125.884,252.801 124.5,251.5C 124.289,249.576 123.623,249.243 122.5,250.5C 116.4,253.613 112.733,251.613 111.5,244.5C 111.846,243.151 112.179,241.817 112.5,240.5C 111.833,239.833 111.167,239.167 110.5,238.5C 110.402,235.752 111.402,235.086 113.5,236.5 Z M 134.5,241.5 C 134.5,243.833 134.5,246.167 134.5,248.5C 133.5,248.5 132.5,248.5 131.5,248.5C 131.5,246.5 131.5,244.5 131.5,242.5C 132.391,241.89 133.391,241.557 134.5,241.5 Z M 116.5,242.5 C 117.833,242.5 119.167,242.5 120.5,242.5C 120.5,243.833 120.5,245.167 120.5,246.5C 119.167,246.5 117.833,246.5 116.5,246.5C 116.5,245.167 116.5,243.833 116.5,242.5 Z"/></g>
<g><path style="opacity:0.169" fill="#bababa" d="M 113.5,236.5 C 114.391,237.11 115.391,237.443 116.5,237.5C 115.053,238.885 114.053,238.552 113.5,236.5 Z"/></g>
<g><path style="opacity:0.678" fill="#949494" d="M 110.5,238.5 C 111.167,239.167 111.833,239.833 112.5,240.5C 111.325,240.719 110.325,240.386 109.5,239.5C 109.624,238.893 109.957,238.56 110.5,238.5 Z"/></g>
<g><path style="opacity:0.475" fill="#8d8d8d" d="M 122.5,238.5 C 123.906,238.973 124.573,239.973 124.5,241.5C 123.094,241.027 122.427,240.027 122.5,238.5 Z"/></g>
<g><path style="opacity:0.239" fill="#a8a8a8" d="M 134.5,241.5 C 133.391,241.557 132.391,241.89 131.5,242.5C 132.053,240.448 133.053,240.115 134.5,241.5 Z"/></g>
<g><path style="opacity:1" fill="#323232" d="M 369.5,245.5 C 370.833,244.833 371.833,243.833 372.5,242.5C 376.78,239.835 381.113,240.001 385.5,243C 388.231,247.03 388.731,251.196 387,255.5C 385,258.167 383,258.167 381,255.5C 381.027,253.583 381.861,251.916 383.5,250.5C 381.729,246.669 378.729,245.502 374.5,247C 372.828,250.143 373.494,252.643 376.5,254.5C 374.602,259.087 372.102,259.087 369,254.5C 368.195,251.304 368.362,248.304 369.5,245.5 Z"/></g>
<g><path style="opacity:0.475" fill="#9b9b9b" d="M 372.5,242.5 C 371.833,243.833 370.833,244.833 369.5,245.5C 369.5,243.5 370.5,242.5 372.5,242.5 Z"/></g>
<g><path style="opacity:0.435" fill="#bcbcbc" d="M 122.5,250.5 C 123.623,249.243 124.289,249.576 124.5,251.5C 123.833,251.167 123.167,250.833 122.5,250.5 Z"/></g>
<g><path style="opacity:0.384" fill="#b4b4b4" d="M 125.5,255.5 C 127.265,254.539 129.265,254.205 131.5,254.5C 131.784,256.415 131.451,258.081 130.5,259.5C 130.5,258.167 130.5,256.833 130.5,255.5C 128.833,255.5 127.167,255.5 125.5,255.5 Z"/></g>
<g><path style="opacity:1" fill="#232323" d="M 125.5,255.5 C 127.167,255.5 128.833,255.5 130.5,255.5C 130.5,256.833 130.5,258.167 130.5,259.5C 126.37,260.215 122.203,261.215 118,262.5C 117.828,266.806 119.994,268.473 124.5,267.5C 126.833,267.5 129.167,267.5 131.5,267.5C 131.5,268.833 131.5,270.167 131.5,271.5C 128.236,272.324 124.902,272.658 121.5,272.5C 119.167,272.5 116.833,272.5 114.5,272.5C 114.5,271.167 114.5,269.833 114.5,268.5C 116.793,267.699 116.46,267.032 113.5,266.5C 111.916,263.094 112.25,259.928 114.5,257C 118.06,255.763 121.727,255.263 125.5,255.5 Z"/></g>
<g><path style="opacity:0.22" fill="#c7c7c7" d="M 386.5,259.5 C 384.801,259.527 383.467,260.194 382.5,261.5C 382.5,260.5 382.5,259.5 382.5,258.5C 384.099,258.232 385.432,258.566 386.5,259.5 Z"/></g>
<g><path style="opacity:1" fill="#1d1d1d" d="M 386.5,259.5 C 386.285,261.179 386.952,262.179 388.5,262.5C 390.176,263.183 390.843,264.517 390.5,266.5C 388.833,266.5 387.167,266.5 385.5,266.5C 385.5,268.167 385.5,269.833 385.5,271.5C 384.5,271.5 383.5,271.5 382.5,271.5C 382.784,269.585 382.451,267.919 381.5,266.5C 378.934,266.656 376.434,266.322 374,265.5C 372.69,266.13 371.856,267.13 371.5,268.5C 371.167,269.167 370.833,269.833 370.5,270.5C 368.41,270.55 367.077,269.55 366.5,267.5C 366.98,265.051 367.98,262.885 369.5,261C 373.887,260.294 378.22,260.46 382.5,261.5C 383.467,260.194 384.801,259.527 386.5,259.5 Z"/></g>
<g><path style="opacity:0.29" fill="#b4b4b4" d="M 386.5,259.5 C 387.401,260.29 388.068,261.29 388.5,262.5C 386.952,262.179 386.285,261.179 386.5,259.5 Z"/></g>
<g><path style="opacity:0.447" fill="#9b9b9b" d="M 113.5,266.5 C 116.46,267.032 116.793,267.699 114.5,268.5C 114.167,267.833 113.833,267.167 113.5,266.5 Z"/></g>
<g><path style="opacity:0.573" fill="#767676" d="M 124.5,267.5 C 126.948,266.527 129.615,266.194 132.5,266.5C 132.784,268.415 132.451,270.081 131.5,271.5C 131.5,270.167 131.5,268.833 131.5,267.5C 129.167,267.5 126.833,267.5 124.5,267.5 Z"/></g>
<g><path style="opacity:0.439" fill="#8b8b8b" d="M 390.5,266.5 C 389.432,267.434 388.099,267.768 386.5,267.5C 386.768,269.099 386.434,270.432 385.5,271.5C 385.5,269.833 385.5,268.167 385.5,266.5C 387.167,266.5 388.833,266.5 390.5,266.5 Z"/></g>
<g><path style="opacity:0.063" fill="#d2d2d2" d="M 371.5,268.5 C 372.757,269.623 372.424,270.289 370.5,270.5C 370.833,269.833 371.167,269.167 371.5,268.5 Z"/></g>
<g><path style="opacity:0.341" fill="#b6b6b6" d="M 381.5,266.5 C 382.451,267.919 382.784,269.585 382.5,271.5C 383.5,271.5 384.5,271.5 385.5,271.5C 384.432,272.434 383.099,272.768 381.5,272.5C 381.5,270.5 381.5,268.5 381.5,266.5 Z"/></g>
<g><path style="opacity:0.349" fill="#aaaaaa" d="M 114.5,268.5 C 114.5,269.833 114.5,271.167 114.5,272.5C 116.833,272.5 119.167,272.5 121.5,272.5C 119.052,273.473 116.385,273.806 113.5,273.5C 113.216,271.585 113.549,269.919 114.5,268.5 Z"/></g>
<g><path style="opacity:1" fill="#2a2a2a" d="M 136.5,286.5 C 136.443,287.609 136.11,288.609 135.5,289.5C 128.332,292.458 120.999,294.124 113.5,294.5C 111.315,289.477 110.315,284.477 110.5,279.5C 111.959,279.433 113.292,279.766 114.5,280.5C 114.5,281.167 114.5,281.833 114.5,282.5C 114.674,284.861 115.007,287.194 115.5,289.5C 116.791,289.737 117.791,289.404 118.5,288.5C 119.756,288.539 120.756,288.039 121.5,287C 119.827,284 119.16,281 119.5,278C 120.944,277.219 122.277,277.386 123.5,278.5C 124.501,281.172 125.501,283.839 126.5,286.5C 128.333,285.948 130,285.115 131.5,284C 130.133,281.699 129.466,279.199 129.5,276.5C 129.557,275.391 129.89,274.391 130.5,273.5C 131.824,272.15 132.824,272.317 133.5,274C 134.816,278.11 135.816,282.276 136.5,286.5 Z"/></g>
<g><path style="opacity:0.396" fill="#a4a4a4" d="M 130.5,273.5 C 129.89,274.391 129.557,275.391 129.5,276.5C 128.115,275.053 128.448,274.053 130.5,273.5 Z"/></g>
<g><path style="opacity:0.216" fill="#c8c8c8" d="M 110.5,279.5 C 110.917,278.876 111.584,278.543 112.5,278.5C 113.713,278.747 114.38,279.414 114.5,280.5C 113.292,279.766 111.959,279.433 110.5,279.5 Z"/></g>
<g><path style="opacity:1" fill="#262626" d="M 387.5,290.5 C 381.108,292.237 374.441,293.071 367.5,293C 368.044,293.717 368.711,294.217 369.5,294.5C 373.91,297.464 378.077,300.798 382,304.5C 382.203,306.391 381.703,308.057 380.5,309.5C 379.167,309.5 377.833,309.5 376.5,309.5C 370.689,307.896 365.022,305.896 359.5,303.5C 358.699,301.958 358.366,300.292 358.5,298.5C 362.195,298.382 365.862,299.382 369.5,301.5C 370.527,302.848 371.86,303.348 373.5,303C 372.627,301.955 371.627,301.122 370.5,300.5C 369.833,300.5 369.5,300.167 369.5,299.5C 369.027,298.094 368.027,297.427 366.5,297.5C 364.825,295.998 362.992,294.665 361,293.5C 360.26,292.251 360.427,291.251 361.5,290.5C 367.419,289.709 373.419,289.209 379.5,289C 378.756,287.961 377.756,287.461 376.5,287.5C 371.94,286.702 367.606,285.202 363.5,283C 364.05,281.155 365.05,279.655 366.5,278.5C 373.5,281.167 380.5,283.833 387.5,286.5C 388.782,287.958 388.782,289.292 387.5,290.5 Z"/></g>
<g><path style="opacity:0.957" fill="#727272" d="M 114.5,282.5 C 115.293,284.918 116.626,286.918 118.5,288.5C 117.791,289.404 116.791,289.737 115.5,289.5C 115.007,287.194 114.674,284.861 114.5,282.5 Z"/></g>
<g><path style="opacity:0.204" fill="#a9a9a9" d="M 136.5,286.5 C 137.885,287.947 137.552,288.947 135.5,289.5C 136.11,288.609 136.443,287.609 136.5,286.5 Z"/></g>
<g><path style="opacity:0.675" fill="#555555" d="M 376.5,287.5 C 377.756,287.461 378.756,287.961 379.5,289C 373.419,289.209 367.419,289.709 361.5,290.5C 366.251,288.859 371.251,287.859 376.5,287.5 Z"/></g>
<g><path style="opacity:0.553" fill="#8b8b8b" d="M 387.5,290.5 C 387.5,291.5 387.5,292.5 387.5,293.5C 381.31,293.177 375.31,293.51 369.5,294.5C 368.711,294.217 368.044,293.717 367.5,293C 374.441,293.071 381.108,292.237 387.5,290.5 Z"/></g>
<g><path style="opacity:0.69" fill="#999999" d="M 366.5,297.5 C 368.027,297.427 369.027,298.094 369.5,299.5C 367.973,299.573 366.973,298.906 366.5,297.5 Z"/></g>
<g><path style="opacity:1" fill="#323232" d="M 140.5,300.5 C 143.518,301.353 145.351,303.353 146,306.5C 146.842,314.172 143.342,318.505 135.5,319.5C 128.643,317.785 125.81,313.451 127,306.5C 128.496,303.998 130.663,302.331 133.5,301.5C 134.735,302.34 135.735,303.34 136.5,304.5C 137.128,307.09 138.295,309.423 140,311.5C 141.914,308.723 141.414,306.39 138.5,304.5C 137.766,303.292 137.433,301.959 137.5,300.5C 138.5,300.5 139.5,300.5 140.5,300.5 Z M 136.5,304.5 C 137.167,304.5 137.833,304.5 138.5,304.5C 141.414,306.39 141.914,308.723 140,311.5C 138.295,309.423 137.128,307.09 136.5,304.5 Z M 135.5,312.5 C 135.158,313.338 134.492,313.672 133.5,313.5C 131.7,312.105 131.366,310.439 132.5,308.5C 133.984,309.467 134.984,310.8 135.5,312.5 Z"/></g>
<g><path style="opacity:0.961" fill="#7b7b7b" d="M 358.5,298.5 C 358.366,300.292 358.699,301.958 359.5,303.5C 356.207,302.68 355.874,301.013 358.5,298.5 Z"/></g>
<g><path style="opacity:0.055" fill="#c5c5c5" d="M 370.5,300.5 C 371.627,301.122 372.627,301.955 373.5,303C 371.86,303.348 370.527,302.848 369.5,301.5C 370.167,301.5 370.5,301.167 370.5,300.5 Z"/></g>
<g><path style="opacity:0.306" fill="#bbbbbb" d="M 140.5,300.5 C 139.5,300.5 138.5,300.5 137.5,300.5C 137.433,301.959 137.766,303.292 138.5,304.5C 137.833,304.5 137.167,304.5 136.5,304.5C 136.5,302.833 136.5,301.167 136.5,299.5C 138.099,299.232 139.432,299.566 140.5,300.5 Z"/></g>
<g><path style="opacity:1" fill="#2a2a2a" d="M 365.5,314.5 C 365.821,312.952 366.821,312.285 368.5,312.5C 368.5,314.833 368.5,317.167 368.5,319.5C 367.722,322.61 365.722,324.276 362.5,324.5C 358.55,323.775 355.05,322.108 352,319.5C 351.329,320.252 350.496,320.586 349.5,320.5C 348.833,319.833 348.167,319.167 347.5,318.5C 347.088,316.027 348.088,314.694 350.5,314.5C 352.308,313.082 352.975,311.082 352.5,308.5C 355.877,304.522 359.377,304.522 363,308.5C 363.542,311.798 363.042,314.965 361.5,318C 361.833,318.5 362.167,319 362.5,319.5C 364.051,318.2 365.051,316.533 365.5,314.5 Z M 357.5,310.5 C 358.234,311.708 358.567,313.041 358.5,314.5C 358.294,316.549 357.461,316.883 356,315.5C 355.123,313.326 355.623,311.659 357.5,310.5 Z"/></g>
<g><path style="opacity:0.612" fill="#8f8f8f" d="M 376.5,309.5 C 377.833,309.5 379.167,309.5 380.5,309.5C 380.631,310.239 380.464,310.906 380,311.5C 378.698,310.915 377.531,310.249 376.5,309.5 Z"/></g>
<g><path style="opacity:0.663" fill="#979797" d="M 352.5,308.5 C 352.975,311.082 352.308,313.082 350.5,314.5C 351.048,312.374 351.715,310.374 352.5,308.5 Z"/></g>
<g><path style="opacity:0.051" fill="#bfbfbf" d="M 357.5,310.5 C 358.586,310.62 359.253,311.287 359.5,312.5C 359.457,313.416 359.124,314.083 358.5,314.5C 358.567,313.041 358.234,311.708 357.5,310.5 Z"/></g>
<g><path style="opacity:0.451" fill="#a6a6a6" d="M 135.5,312.5 C 136.885,313.302 136.718,313.969 135,314.5C 134.235,314.43 133.735,314.097 133.5,313.5C 134.492,313.672 135.158,313.338 135.5,312.5 Z"/></g>
<g><path style="opacity:0.678" fill="#979797" d="M 368.5,319.5 C 368.5,317.167 368.5,314.833 368.5,312.5C 366.821,312.285 365.821,312.952 365.5,314.5C 364.596,313.791 364.263,312.791 364.5,311.5C 366.167,311.5 367.833,311.5 369.5,311.5C 369.806,314.385 369.473,317.052 368.5,319.5 Z"/></g>
<g><path style="opacity:0.745" fill="#8b8b8b" d="M 154.5,320.5 C 152.901,319.438 151.234,319.438 149.5,320.5C 151.703,317.116 153.37,317.116 154.5,320.5 Z"/></g>
<g><path style="opacity:1" fill="#343434" d="M 154.5,320.5 C 155.338,320.842 155.672,321.508 155.5,322.5C 154.833,322.5 154.5,322.833 154.5,323.5C 153.833,323.5 153.5,323.833 153.5,324.5C 149.098,327.123 144.931,330.123 141,333.5C 138.523,332.125 137.689,330.291 138.5,328C 135.736,327.737 134.069,326.237 133.5,323.5C 134.438,322.447 135.605,321.78 137,321.5C 138.667,322.5 140.333,323.5 142,324.5C 144.633,323.356 147.133,322.023 149.5,320.5C 151.234,319.438 152.901,319.438 154.5,320.5 Z"/></g>
<g><path style="opacity:0.196" fill="#c9c9c9" d="M 347.5,318.5 C 348.167,319.167 348.833,319.833 349.5,320.5C 348.833,320.5 348.5,320.833 348.5,321.5C 347.609,320.89 346.609,320.557 345.5,320.5C 345.833,319.5 346.5,318.833 347.5,318.5 Z"/></g>
<g><path style="opacity:1" fill="#333333" d="M 345.5,320.5 C 346.609,320.557 347.609,320.89 348.5,321.5C 352.798,324.463 356.798,327.797 360.5,331.5C 359.5,332.833 358.5,334.167 357.5,335.5C 356.914,335.291 356.414,334.957 356,334.5C 355.935,340.235 353.102,342.735 347.5,342C 343.044,339.374 339.044,336.207 335.5,332.5C 335.986,330.503 337.153,329.169 339,328.5C 342.347,331.344 345.847,334.011 349.5,336.5C 351.946,335.573 352.779,333.906 352,331.5C 348.739,328.784 345.572,325.951 342.5,323C 343.373,321.955 344.373,321.122 345.5,320.5 Z"/></g>
<g><path style="opacity:1" fill="#2e2e2e" d="M 157.5,324.5 C 158.167,324.5 158.5,324.833 158.5,325.5C 158.5,327.167 158.5,328.833 158.5,330.5C 160.167,330.5 161.833,330.5 163.5,330.5C 167.478,333.877 167.478,337.377 163.5,341C 161.833,341.667 160.167,341.667 158.5,341C 156.63,339.634 154.63,338.467 152.5,337.5C 152.167,337.833 151.833,338.167 151.5,338.5C 152.579,340.543 154.246,341.876 156.5,342.5C 157.429,343.689 157.762,345.022 157.5,346.5C 149.477,346.317 145.977,342.317 147,334.5C 149.396,331.933 151.896,329.6 154.5,327.5C 154.5,325.5 155.5,324.5 157.5,324.5 Z M 157.5,332.5 C 162.663,334.424 162.663,335.591 157.5,336C 154.875,334.607 154.875,333.441 157.5,332.5 Z"/></g>
<g><path style="opacity:0.455" fill="#b2b2b2" d="M 155.5,322.5 C 156.167,323.167 156.833,323.833 157.5,324.5C 155.5,324.5 154.5,325.5 154.5,327.5C 153.596,326.791 153.263,325.791 153.5,324.5C 154.167,324.5 154.5,324.167 154.5,323.5C 154.5,322.833 154.833,322.5 155.5,322.5 Z"/></g>
<g><path style="opacity:0.575" fill="#828282" d="M 158.5,325.5 C 159.434,326.568 159.768,327.901 159.5,329.5C 161.099,329.232 162.432,329.566 163.5,330.5C 161.833,330.5 160.167,330.5 158.5,330.5C 158.5,328.833 158.5,327.167 158.5,325.5 Z"/></g>
<g><path style="opacity:1" fill="#343434" d="M 322.5,347.5 C 322.5,346.833 322.167,346.5 321.5,346.5C 321.5,346.167 321.5,345.833 321.5,345.5C 321.833,344.833 322.167,344.167 322.5,343.5C 322.5,342.833 322.833,342.5 323.5,342.5C 325.167,342.5 326.833,342.5 328.5,342.5C 328.5,341.167 328.5,339.833 328.5,338.5C 331.573,333.754 335.073,333.421 339,337.5C 339.667,339.5 339.667,341.5 339,343.5C 337.818,345.344 336.651,347.177 335.5,349C 335.646,350.727 336.313,350.894 337.5,349.5C 338.833,347.5 340.167,345.5 341.5,343.5C 343.167,343.833 344.167,344.833 344.5,346.5C 343.327,352.737 339.661,355.57 333.5,355C 331.184,352.752 328.85,350.419 326.5,348C 325.207,347.51 323.873,347.343 322.5,347.5 Z M 331.5,340.5 C 332.5,340.5 333.5,340.5 334.5,340.5C 334.716,342.681 333.883,344.347 332,345.5C 330.212,343.977 330.045,342.31 331.5,340.5 Z"/></g>
<g><path style="opacity:1" fill="#353535" d="M 171.5,351.5 C 170.496,354.105 170.83,354.105 172.5,351.5C 174.865,349.14 177.532,347.14 180.5,345.5C 181.522,345.855 182.189,346.522 182.5,347.5C 183.234,348.708 183.567,350.041 183.5,351.5C 181.744,356.765 179.411,361.765 176.5,366.5C 175.167,365.5 173.833,364.5 172.5,363.5C 174.29,360.612 175.457,357.612 176,354.5C 173.333,356.5 170.667,358.5 168,360.5C 166.647,359.315 165.48,357.981 164.5,356.5C 165.74,353.607 167.074,350.773 168.5,348C 167.833,347.333 167.167,347.333 166.5,348C 164.615,350.222 162.449,352.056 160,353.5C 158.378,353.046 157.212,352.046 156.5,350.5C 160.883,345.95 165.716,341.95 171,338.5C 172.775,339.27 174.275,340.437 175.5,342C 174.023,345.12 172.689,348.286 171.5,351.5 Z"/></g>
<g><path style="opacity:1" fill="#343434" d="M 320.5,341.5 C 320.5,342.833 320.5,344.167 320.5,345.5C 320.5,346.167 320.833,346.5 321.5,346.5C 322.167,346.5 322.5,346.833 322.5,347.5C 322.5,347.833 322.5,348.167 322.5,348.5C 322.5,350.167 322.5,351.833 322.5,353.5C 323.5,353.5 324.5,353.5 325.5,353.5C 330.354,359.555 329.021,364.055 321.5,367C 322.833,368 322.833,369 321.5,370C 320.207,370.49 318.873,370.657 317.5,370.5C 317.116,366.784 315.783,363.451 313.5,360.5C 314.05,357.227 315.717,354.727 318.5,353C 315.061,354.532 311.394,355.199 307.5,355C 303.399,350.706 303.732,346.706 308.5,343C 311.055,341.556 313.721,340.389 316.5,339.5C 318.171,339.668 319.504,340.335 320.5,341.5 Z M 314.5,344.5 C 315.497,344.47 316.164,344.97 316.5,346C 314.977,347.854 313.144,349.354 311,350.5C 310.651,347.669 311.817,345.669 314.5,344.5 Z M 319.5,357.5 C 322.5,357.167 323.833,358.5 323.5,361.5C 319.935,361.799 318.602,360.465 319.5,357.5 Z"/></g>
<g><path style="opacity:0.51" fill="#8c8c8c" d="M 328.5,338.5 C 328.5,339.833 328.5,341.167 328.5,342.5C 326.833,342.5 325.167,342.5 323.5,342.5C 324.568,341.566 325.901,341.232 327.5,341.5C 327.263,340.209 327.596,339.209 328.5,338.5 Z"/></g>
<g><path style="opacity:0.286" fill="#afafaf" d="M 320.5,341.5 C 321.167,342.167 321.833,342.833 322.5,343.5C 322.167,344.167 321.833,344.833 321.5,345.5C 321.167,345.5 320.833,345.5 320.5,345.5C 320.5,344.167 320.5,342.833 320.5,341.5 Z"/></g>
<g><path style="opacity:0.353" fill="#b6b6b6" d="M 182.5,347.5 C 183.586,347.62 184.253,348.287 184.5,349.5C 184.457,350.416 184.124,351.083 183.5,351.5C 183.567,350.041 183.234,348.708 182.5,347.5 Z"/></g>
<g><path style="opacity:0.125" fill="#dcdcdc" d="M 171.5,351.5 C 171.833,351.5 172.167,351.5 172.5,351.5C 170.83,354.105 170.496,354.105 171.5,351.5 Z"/></g>
<g><path style="opacity:1" fill="#313131" d="M 191.5,369.5 C 191.5,371.5 190.5,372.5 188.5,372.5C 187.543,375.15 185.876,375.817 183.5,374.5C 182.89,373.609 182.557,372.609 182.5,371.5C 181.525,369.807 180.192,368.307 178.5,367C 179.211,365.745 180.044,364.579 181,363.5C 182.555,365.146 184.221,365.479 186,364.5C 187.039,362.254 188.206,360.087 189.5,358C 187.673,357.101 186.34,355.767 185.5,354C 187.25,350.99 189.584,350.657 192.5,353C 193.872,354.242 194.872,355.742 195.5,357.5C 194.234,361.197 192.568,364.697 190.5,368C 191.056,368.383 191.389,368.883 191.5,369.5 Z"/></g>
<g><path style="opacity:0.404" fill="#b7b7b7" d="M 322.5,348.5 C 323.233,350.294 324.233,351.961 325.5,353.5C 324.5,353.5 323.5,353.5 322.5,353.5C 322.5,351.833 322.5,350.167 322.5,348.5 Z"/></g>
<g><path style="opacity:1" fill="#2d2d2d" d="M 307.5,357.5 C 307.427,359.027 308.094,360.027 309.5,360.5C 313.711,365.788 313.044,370.621 307.5,375C 301.853,377.671 297.853,376.171 295.5,370.5C 295.557,369.391 295.89,368.391 296.5,367.5C 298.974,365.76 301.641,364.26 304.5,363C 301.593,360.81 299.26,361.31 297.5,364.5C 295.517,364.843 294.183,364.176 293.5,362.5C 294.254,359.909 295.921,358.076 298.5,357C 301.592,356.264 304.592,356.431 307.5,357.5 Z M 304.5,367.5 C 305.833,367.5 306.5,368.167 306.5,369.5C 305.065,371.401 303.398,371.734 301.5,370.5C 301.833,369.833 302.167,369.167 302.5,368.5C 303.492,368.672 304.158,368.338 304.5,367.5 Z"/></g>
<g><path style="opacity:0.725" fill="#919191" d="M 307.5,357.5 C 308.906,357.973 309.573,358.973 309.5,360.5C 308.094,360.027 307.427,359.027 307.5,357.5 Z"/></g>
<g><path style="opacity:1" fill="#2d2d2d" d="M 205.5,359.5 C 206.11,360.391 206.443,361.391 206.5,362.5C 205.663,366.176 204.33,369.676 202.5,373C 204.548,374.226 204.881,375.726 203.5,377.5C 202.167,377.5 200.833,377.5 199.5,377.5C 199.5,378.5 199.5,379.5 199.5,380.5C 196.174,384.288 192.507,384.454 188.5,381C 187.226,380.023 187.226,379.189 188.5,378.5C 189.391,377.89 190.391,377.557 191.5,377.5C 193.342,379.034 194.675,378.7 195.5,376.5C 194.643,375.575 193.643,374.908 192.5,374.5C 191.557,372.999 191.891,371.665 193.5,370.5C 194.822,370.33 195.989,370.663 197,371.5C 198.862,367.581 200.529,363.581 202,359.5C 203.292,358.209 204.458,358.209 205.5,359.5 Z"/></g>
<g><path style="opacity:0.102" fill="#aeaeae" d="M 205.5,359.5 C 207.552,360.053 207.885,361.053 206.5,362.5C 206.443,361.391 206.11,360.391 205.5,359.5 Z"/></g>
<g><path style="opacity:1" fill="#323232" d="M 290.5,380.5 C 289.833,377.833 289.167,377.833 288.5,380.5C 287.341,382.377 285.674,382.877 283.5,382C 282.62,380.644 282.286,379.144 282.5,377.5C 285.352,377.648 287.019,376.314 287.5,373.5C 286.601,370.303 285.601,367.136 284.5,364C 285.638,361.955 287.305,361.288 289.5,362C 291.5,367.667 293.5,373.333 295.5,379C 293.975,380.009 292.308,380.509 290.5,380.5 Z"/></g>
<g><path style="opacity:1" fill="#2d2d2d" d="M 211.5,363.5 C 224.283,362.429 228.449,367.762 224,379.5C 219.036,384.18 213.869,384.18 208.5,379.5C 205.722,373.49 206.722,368.157 211.5,363.5 Z M 214.5,368.5 C 220.633,368.246 222.133,370.913 219,376.5C 215.747,378.967 213.581,378.134 212.5,374C 212.758,371.991 213.425,370.157 214.5,368.5 Z"/></g>
<g><path style="opacity:0.404" fill="#b0b0b0" d="M 293.5,362.5 C 294.183,364.176 295.517,364.843 297.5,364.5C 296.081,365.451 294.415,365.784 292.5,365.5C 292.263,364.209 292.596,363.209 293.5,362.5 Z"/></g>
<g><path style="opacity:0.122" fill="#b6b6b6" d="M 304.5,367.5 C 305.209,366.596 306.209,366.263 307.5,366.5C 307.737,367.791 307.404,368.791 306.5,369.5C 306.5,368.167 305.833,367.5 304.5,367.5 Z"/></g>
<g><path style="opacity:1" fill="#2f2f2f" d="M 244.5,369.5 C 244.833,370.833 245.167,372.167 245.5,373.5C 244.758,375.35 243.758,376.016 242.5,375.5C 242.5,373.5 241.5,372.5 239.5,372.5C 236.187,370.805 234.187,371.805 233.5,375.5C 233.821,377.048 234.821,377.715 236.5,377.5C 244.401,378.866 246.568,383.2 243,390.5C 239.405,392.456 235.572,392.956 231.5,392C 226.091,390.099 225.591,387.599 230,384.5C 233.162,388.016 236.328,388.183 239.5,385C 235.428,383.203 231.595,381.037 228,378.5C 225.834,371.511 228.334,367.511 235.5,366.5C 238.829,366.743 241.829,367.743 244.5,369.5 Z"/></g>
<g><path style="opacity:0.31" fill="#bababa" d="M 296.5,367.5 C 295.89,368.391 295.557,369.391 295.5,370.5C 294.115,369.053 294.448,368.053 296.5,367.5 Z"/></g>
<g><path style="opacity:0.051" fill="#dddddd" d="M 302.5,368.5 C 302.167,369.167 301.833,369.833 301.5,370.5C 300.243,369.377 300.576,368.711 302.5,368.5 Z"/></g>
<g><path style="opacity:0.439" fill="#989898" d="M 244.5,369.5 C 246.519,370.538 246.853,371.872 245.5,373.5C 245.167,372.167 244.833,370.833 244.5,369.5 Z"/></g>
<g><path style="opacity:0.588" fill="#9d9d9d" d="M 182.5,371.5 C 182.557,372.609 182.89,373.609 183.5,374.5C 181.448,373.947 181.115,372.947 182.5,371.5 Z"/></g>
<g><path style="opacity:0.016" fill="#c4c4c4" d="M 191.5,369.5 C 192.492,369.328 193.158,369.662 193.5,370.5C 191.891,371.665 191.557,372.999 192.5,374.5C 190.847,374.34 189.514,373.674 188.5,372.5C 190.5,372.5 191.5,371.5 191.5,369.5 Z"/></g>
<g><path style="opacity:0.678" fill="#a3a3a3" d="M 239.5,372.5 C 241.5,372.5 242.5,373.5 242.5,375.5C 241.167,374.833 240.167,373.833 239.5,372.5 Z"/></g>
<g><path style="opacity:0.004" fill="#c1c1c1" d="M 233.5,375.5 C 234.71,375.932 235.71,376.599 236.5,377.5C 234.821,377.715 233.821,377.048 233.5,375.5 Z"/></g>
<g><path style="opacity:1" fill="#3e3e3e" d="M 270.5,375.5 C 272.185,376.184 273.185,377.517 273.5,379.5C 273.167,379.833 272.833,380.167 272.5,380.5C 269.298,381.127 266.131,381.794 263,382.5C 261.495,380.702 261.328,378.868 262.5,377C 265.365,376.817 268.031,376.317 270.5,375.5 Z"/></g>
<g><path style="opacity:0.561" fill="#949494" d="M 191.5,377.5 C 190.391,377.557 189.391,377.89 188.5,378.5C 189.053,376.448 190.053,376.115 191.5,377.5 Z"/></g>
<g><path style="opacity:0.404" fill="#a3a3a3" d="M 203.5,377.5 C 202.074,378.341 200.74,379.341 199.5,380.5C 199.5,379.5 199.5,378.5 199.5,377.5C 200.833,377.5 202.167,377.5 203.5,377.5 Z"/></g>
<g><path style="opacity:0.251" fill="#afafaf" d="M 290.5,380.5 C 289.833,380.5 289.167,380.5 288.5,380.5C 289.167,377.833 289.833,377.833 290.5,380.5 Z"/></g>
</svg>
